# xmcd CD database file
#
# Track frame offsets:
#	150
#	10750
#	27458
#	36414
#	48727
#	66440
#	81179
#	98111
#	110861
#	130113
#
# Disc length: 1941 seconds
#
# Revision: 0
# Processed by: cddbd v1.5.1PL0 Copyright (c) Steve Scherf et al.
# Submitted via: CDex 1.51
#
DISCID=8c07930a
DTITLE=Various Artist - Best of Country-For The Good Times
DYEAR=1900
DGENRE=Country
TTITLE0=Dave Dudley-Six Days On The Road
TTITLE1=Faron Young-For The Good Times
TTITLE2=Lynn Anderson-Rocky Top
TTITLE3=Liz Andrson-Crazy
TTITLE4=Roy Drusky-Me and Bobby McGee
TTITLE5=Faron Young-Cold Cold Heart
TTITLE6=Mac Wiseman-Have I Told You Lately That I Love You
TTITLE7=Lynn Anderson-I Fall To Pieces
TTITLE8=Jerry Wallace-Help Me Make It Through The Night
TTITLE9=Nat Stuckey-Lucille
EXTD=
EXTT0=
EXTT1=
EXTT2=
EXTT3=
EXTT4=
EXTT5=
EXTT6=
EXTT7=
EXTT8=
EXTT9=
PLAYORDER=
